<svg xmlns="http://www.w3.org/2000/svg" width="512" height="512" style="shape-rendering:geometricPrecision;text-rendering:geometricPrecision;image-rendering:optimizeQuality;fill-rule:evenodd;clip-rule:evenodd"><path fill="#ae6331" d="M255.5 124.5v194c-46.133-2.303-76.633-25.303-91.5-69a117.838 117.838 0 0 1-4-33c-4.222-17.633-15.056-28.8-32.5-33.5l-116-1c-5.432-1.936-9.432-5.436-12-10.5v-28C8.704 89.452 39.37 53.618 91.5 36c50.87-12.595 94.037.239 129.5 38.5a332.199 332.199 0 0 1 28 47c1.734 1.951 3.901 2.951 6.5 3Z" style="opacity:.999"/><path fill="#823200" d="M511.5 143.5v154c-9.144 28.084-28.477 40.251-58 36.5-14.318-3.494-24.984-11.661-32-24.5a78.973 78.973 0 0 1-4.5-19l-1-41c-3.194-7.021-8.694-10.687-16.5-11-7.93.537-13.096 4.537-15.5 12a3610.88 3610.88 0 0 0-.5 85c.167 29.002 0 58.002-.5 87-3.941 21.942-16.775 35.442-38.5 40.5-24.013 3.078-41.513-6.088-52.5-27.5a204.134 204.134 0 0 1-3.5-11c.167-31.002 0-62.002-.5-93-2.315-7.156-7.148-11.156-14.5-12-5.81-.99-11.81-1.323-18-1v-194c2.599-.049 4.766-1.049 6.5-3a332.199 332.199 0 0 1 28-47c35.428-38.249 78.595-51.082 129.5-38.5 52.071 17.567 82.737 53.4 92 107.5Z" style="opacity:1"/><path fill="#4b1e0a" d="M-.5 171.5c2.568 5.064 6.568 8.564 12 10.5l116 1c17.444 4.7 28.278 15.867 32.5 33.5a117.838 117.838 0 0 0 4 33c14.867 43.697 45.367 66.697 91.5 69 6.19-.323 12.19.01 18 1h-18v160c-5.906.418-10.406-1.916-13.5-7-9.171-34.52-26.671-64.02-52.5-88.5a572.834 572.834 0 0 0-31-26 3677.74 3677.74 0 0 1-84-59A359.01 359.01 0 0 1 34 261.5c-19.137-22.272-30.637-47.939-34.5-77v-13Z" style="opacity:.996"/><path fill="#1e000a" d="M421.5 309.5a582.917 582.917 0 0 1-38 26c-.167-28.335 0-56.669.5-85 2.404-7.463 7.57-11.463 15.5-12 7.806.313 13.306 3.979 16.5 11l1 41a78.973 78.973 0 0 0 4.5 19Z" style="opacity:1"/><path fill="#1e0009" d="M273.5 319.5c7.352.844 12.185 4.844 14.5 12 .5 30.998.667 61.998.5 93-8.542 15.117-15.042 31.117-19.5 48-3.094 5.084-7.594 7.418-13.5 7v-160h18Z" style="opacity:1"/></svg>