<svg width="28" height="29" viewBox="0 0 28 29" fill="none" xmlns="http://www.w3.org/2000/svg">
<path d="M11.822 0.413012L19.349 7.94901L19.429 7.86901C19.5867 7.71469 19.7978 7.6272 20.0184 7.62477C20.239 7.62235 20.452 7.70519 20.613 7.85601L20.619 7.86201L21.486 8.72901C21.791 9.03401 21.801 9.49901 21.569 9.82301L21.565 9.83001L21.422 10.022L27.582 16.182C28.132 16.732 28.132 17.612 27.582 18.162L18.152 27.592C17.602 28.142 16.722 28.142 16.172 27.592L11.725 23.145C11.6512 23.2381 11.5584 23.3145 11.4529 23.3692C11.3474 23.4239 11.2316 23.4556 11.1129 23.4623C10.9943 23.469 10.8756 23.4505 10.7646 23.4081C10.6536 23.3656 10.5529 23.3002 10.469 23.216L7.86901 20.616C7.71469 20.4584 7.6272 20.2472 7.62477 20.0266C7.62235 19.806 7.70519 19.593 7.85601 19.432L7.86201 19.425L7.93901 19.349L0.412012 11.822C-0.137988 11.272 -0.137988 10.392 0.412012 9.84201L9.84201 0.412012C10.392 -0.137988 11.272 -0.137988 11.822 0.412012V0.413012ZM18.404 8.89301L16.648 7.13801C16.5928 7.0811 16.5268 7.03585 16.4538 7.00495C16.3808 6.97405 16.3023 6.95813 16.223 6.95813C16.1437 6.95813 16.0653 6.97405 15.9923 7.00495C15.9193 7.03585 15.8532 7.0811 15.798 7.13801L12.218 10.718C12.1613 10.7743 12.1163 10.8413 12.0856 10.9151C12.0548 10.9889 12.039 11.0681 12.039 11.148C12.039 11.2279 12.0548 11.3071 12.0856 11.3809C12.1163 11.4547 12.1613 11.5217 12.218 11.578L13.967 13.327L14.577 12.717L13.012 11.152L16.222 7.93201L17.791 9.50601L18.404 8.89301ZM13.328 13.965L11.574 12.211C11.5188 12.1541 11.4528 12.1088 11.3798 12.0779C11.3068 12.047 11.2283 12.0311 11.149 12.0311C11.0697 12.0311 10.9913 12.047 10.9183 12.0779C10.8453 12.1088 10.7792 12.1541 10.724 12.211L7.14401 15.791L7.13901 15.796L7.13401 15.801C6.89401 16.031 6.89401 16.411 7.13401 16.651L8.88601 18.403L9.50201 17.787L7.93201 16.223L11.152 13.013L12.716 14.576L13.328 13.965ZM6.82201 6.19301L10.402 9.77301C10.642 10.013 11.022 10.013 11.252 9.76301L14.832 6.18301C14.8889 6.12884 14.9342 6.06368 14.9651 5.99148C14.9961 5.91929 15.012 5.84156 15.012 5.76301H15.022C15.022 5.61301 14.962 5.45301 14.842 5.33301L11.262 1.75301C11.2058 1.69617 11.1388 1.65105 11.065 1.62025C10.9912 1.58946 10.912 1.5736 10.832 1.5736C10.752 1.5736 10.6729 1.58946 10.599 1.62025C10.5252 1.65105 10.4583 1.69617 10.402 1.75301L6.82201 5.34301C6.58201 5.57301 6.58201 5.95301 6.82201 6.19301ZM1.75201 11.263L5.33201 14.843C5.57201 15.083 5.95201 15.083 6.18201 14.843L9.76201 11.263C9.82013 11.2077 9.86613 11.1409 9.89711 11.0669C9.9281 10.9929 9.94339 10.9132 9.94201 10.833H9.95201C9.95201 10.673 9.89201 10.523 9.77201 10.403L6.19201 6.82301C6.13683 6.7661 6.07077 6.72085 5.99776 6.68995C5.92476 6.65905 5.84629 6.64313 5.76701 6.64313C5.68774 6.64313 5.60927 6.65905 5.53626 6.68995C5.46326 6.72085 5.3972 6.7661 5.34201 6.82301L1.75201 10.413C1.51201 10.643 1.51201 11.023 1.75201 11.263ZM8.68501 20.017L11.047 22.38L20.683 9.34001L20.028 8.68501L8.68501 20.017Z" fill="black"/>
<path d="M11.822 0.413012L19.349 7.94901L19.429 7.86901C19.5867 7.71469 19.7978 7.6272 20.0184 7.62477C20.239 7.62235 20.452 7.70519 20.613 7.85601L20.619 7.86201L21.486 8.72901C21.791 9.03401 21.801 9.49901 21.569 9.82301L21.565 9.83001L21.422 10.022L27.582 16.182C28.132 16.732 28.132 17.612 27.582 18.162L18.152 27.592C17.602 28.142 16.722 28.142 16.172 27.592L11.725 23.145C11.6512 23.2381 11.5584 23.3145 11.4529 23.3692C11.3474 23.4239 11.2316 23.4556 11.1129 23.4623C10.9943 23.469 10.8756 23.4505 10.7646 23.4081C10.6536 23.3656 10.5529 23.3002 10.469 23.216L7.86901 20.616C7.71469 20.4584 7.6272 20.2472 7.62477 20.0266C7.62235 19.806 7.70519 19.593 7.85601 19.432L7.86201 19.425L7.93901 19.349L0.412012 11.822C-0.137988 11.272 -0.137988 10.392 0.412012 9.84201L9.84201 0.412012C10.392 -0.137988 11.272 -0.137988 11.822 0.412012V0.413012ZM18.404 8.89301L16.648 7.13801C16.5928 7.0811 16.5268 7.03585 16.4538 7.00495C16.3808 6.97405 16.3023 6.95813 16.223 6.95813C16.1437 6.95813 16.0653 6.97405 15.9923 7.00495C15.9193 7.03585 15.8532 7.0811 15.798 7.13801L12.218 10.718C12.1613 10.7743 12.1163 10.8413 12.0856 10.9151C12.0548 10.9889 12.039 11.0681 12.039 11.148C12.039 11.2279 12.0548 11.3071 12.0856 11.3809C12.1163 11.4547 12.1613 11.5217 12.218 11.578L13.967 13.327L14.577 12.717L13.012 11.152L16.222 7.93201L17.791 9.50601L18.404 8.89301ZM13.328 13.965L11.574 12.211C11.5188 12.1541 11.4528 12.1088 11.3798 12.0779C11.3068 12.047 11.2283 12.0311 11.149 12.0311C11.0697 12.0311 10.9913 12.047 10.9183 12.0779C10.8453 12.1088 10.7792 12.1541 10.724 12.211L7.14401 15.791L7.13901 15.796L7.13401 15.801C6.89401 16.031 6.89401 16.411 7.13401 16.651L8.88601 18.403L9.50201 17.787L7.93201 16.223L11.152 13.013L12.716 14.576L13.328 13.965ZM6.82201 6.19301L10.402 9.77301C10.642 10.013 11.022 10.013 11.252 9.76301L14.832 6.18301C14.8889 6.12884 14.9342 6.06368 14.9651 5.99148C14.9961 5.91929 15.012 5.84156 15.012 5.76301H15.022C15.022 5.61301 14.962 5.45301 14.842 5.33301L11.262 1.75301C11.2058 1.69617 11.1388 1.65105 11.065 1.62025C10.9912 1.58946 10.912 1.5736 10.832 1.5736C10.752 1.5736 10.6729 1.58946 10.599 1.62025C10.5252 1.65105 10.4583 1.69617 10.402 1.75301L6.82201 5.34301C6.58201 5.57301 6.58201 5.95301 6.82201 6.19301ZM1.75201 11.263L5.33201 14.843C5.57201 15.083 5.95201 15.083 6.18201 14.843L9.76201 11.263C9.82013 11.2077 9.86613 11.1409 9.89711 11.0669C9.9281 10.9929 9.94339 10.9132 9.94201 10.833H9.95201C9.95201 10.673 9.89201 10.523 9.77201 10.403L6.19201 6.82301C6.13683 6.7661 6.07077 6.72085 5.99776 6.68995C5.92476 6.65905 5.84629 6.64313 5.76701 6.64313C5.68774 6.64313 5.60927 6.65905 5.53626 6.68995C5.46326 6.72085 5.3972 6.7661 5.34201 6.82301L1.75201 10.413C1.51201 10.643 1.51201 11.023 1.75201 11.263ZM8.68501 20.017L11.047 22.38L20.683 9.34001L20.028 8.68501L8.68501 20.017Z" fill="#FD9222"/>
</svg>
